<svg width="25" height="25" viewBox="0 0 25 25" fill="none" xmlns="http://www.w3.org/2000/svg">
<g id="ion:timer-outline">
<path id="Vector" d="M5.51315 6.25011C3.99714 7.94329 3.14836 10.1299 3.12497 12.4025C3.06735 17.5953 7.3071 21.8653 12.5 21.8751C17.6855 21.8849 21.875 17.6842 21.875 12.5001C21.875 7.39562 17.7954 3.24181 12.7197 3.12511C12.6911 3.12419 12.6627 3.12904 12.636 3.13935C12.6094 3.14967 12.5851 3.16525 12.5645 3.18516C12.544 3.20508 12.5278 3.22892 12.5167 3.25526C12.5056 3.2816 12.4999 3.30991 12.5 3.33849V7.42198" stroke="black" stroke-opacity="0.59" stroke-width="2" stroke-linecap="round" stroke-linejoin="round"/>
<path id="Vector_2" d="M11.3956 13.6049L7.53814 8.08733C7.48477 8.01089 7.46002 7.9181 7.46821 7.82523C7.4764 7.73235 7.51702 7.64533 7.58295 7.57941C7.64887 7.51348 7.73589 7.47286 7.82876 7.46467C7.92164 7.45648 8.01443 7.48123 8.09087 7.5346L13.6085 11.392C13.9469 11.6358 14.1758 12.0029 14.2456 12.4141C14.3154 12.8253 14.2205 13.2475 13.9814 13.5892C13.7424 13.931 13.3784 14.1649 12.9682 14.2404C12.5581 14.3159 12.1347 14.2269 11.7896 13.9926C11.637 13.8869 11.5038 13.7557 11.3956 13.6049Z" fill="black" fill-opacity="0.59"/>
</g>
</svg>
