<svg width="25" height="25" viewBox="0 0 25 25" fill="none" xmlns="http://www.w3.org/2000/svg">
<g id="solar:users-group-two-rounded-line-duotone">
<g id="Group">
<path id="Vector" d="M12.4999 10.4166C14.8011 10.4166 16.6666 8.55111 16.6666 6.24992C16.6666 3.94873 14.8011 2.08325 12.4999 2.08325C10.1987 2.08325 8.33325 3.94873 8.33325 6.24992C8.33325 8.55111 10.1987 10.4166 12.4999 10.4166Z" stroke="#A2A2A2" stroke-width="1.5"/>
<path id="Vector_2" opacity="0.5" d="M18.75 9.37484C20.476 9.37484 21.875 8.20817 21.875 6.77067C21.875 5.33317 20.476 4.1665 18.75 4.1665M6.25 9.37484C4.52396 9.37484 3.125 8.20817 3.125 6.77067C3.125 5.33317 4.52396 4.1665 6.25 4.1665" stroke="#A2A2A2" stroke-width="1.5" stroke-linecap="round"/>
<path id="Vector_3" d="M12.5 21.8748C15.9518 21.8748 18.75 20.0094 18.75 17.7082C18.75 15.407 15.9518 13.5415 12.5 13.5415C9.04822 13.5415 6.25 15.407 6.25 17.7082C6.25 20.0094 9.04822 21.8748 12.5 21.8748Z" stroke="#A2A2A2" stroke-width="1.5"/>
<path id="Vector_4" opacity="0.5" d="M20.8333 19.7916C22.6604 19.3905 23.9583 18.376 23.9583 17.1874C23.9583 15.9989 22.6604 14.9843 20.8333 14.5833M4.16663 19.7916C2.33954 19.3905 1.04163 18.376 1.04163 17.1874C1.04163 15.9989 2.33954 14.9843 4.16663 14.5833" stroke="#A2A2A2" stroke-width="1.5" stroke-linecap="round"/>
</g>
</g>
</svg>
